<svg id="Layer_1" data-name="Layer 1" xmlns="http://www.w3.org/2000/svg" viewBox="0 0 187.22 301.56"><defs><style>.cls-1{fill:#323644;}.cls-2{fill:#e12851;}</style></defs><path class="cls-1" d="M217.83,119.25s-12.28-20.55,5-20.48c16.05.07,77.89,61.15,111.25,63.61a14.08,14.08,0,0,0,12.74-5.85c2.9-4.27,3.24-10.34-11-15.48,0,0,16.23,7.25,3.77,16S234.77,97.26,234.77,97.26s-18-12.19-24,1.14C206.63,107.75,217.83,119.25,217.83,119.25Z" transform="translate(-189.69 -79.54)"/><path class="cls-1" d="M262.7,105.73s22.16,25.19,50.69,31.62C313.39,137.35,282.25,121.63,262.7,105.73Z" transform="translate(-189.69 -79.54)"/><path class="cls-1" d="M264.63,100.1s13.26-29.14,34.16-18c23.06,12.26,21.84,39.29,19.16,47.08,0,0-1.71-29.27-21-37S264.63,100.1,264.63,100.1Z" transform="translate(-189.69 -79.54)"/><path class="cls-1" d="M289.79,145.66s-12.69,11.44-36.21,13.5S220.85,186,224.19,200.43s-15.71,26.3-30.43,12.44c0,0-9.72-11.44.88-18.17,0,0-3.63,13.38,9,9.63,9.26-2.74.65-13.45.48-28.89-.18-16.64,10.11-50.64,54.9-50.64C259,124.8,271,134.09,289.79,145.66Z" transform="translate(-189.69 -79.54)"/><path class="cls-1" d="M285.67,162.42s10.51-1.71,16.07,9.5,15.76,43.33,15.76,43.33,13-25,11.12-55.3c0,0,3.71,40.47-9.27,66.43,0,0-14-35.07-19.15-48.51S285.67,162.42,285.67,162.42Z" transform="translate(-189.69 -79.54)"/><path class="cls-2" d="M235,245.54a96.78,96.78,0,0,0,45.24-7.48c-2.08-3.86-2.36-10.3,11-17.11,3.32-1.69,6.12-4.44,6.87-8.08.08-.38.14-.78.19-1.18a12.49,12.49,0,0,0-2.88-9c-2.79-3.49-7.22-6.1-6.87-17.31,0,0-9.17,19.54-26.17,31.43,0,0-10.72-17.84-11.25-43.88,0,0-1.7,14.55-17.64,26.24,0,0-4.26,8.05-.12,22C235.36,227.74,235.46,237.27,235,245.54Z" transform="translate(-189.69 -79.54)"/><path class="cls-2" d="M362.05,356.3c10-3.36,14.85-4,14.85-4S356,256.7,283.4,241.76c0,0-20.15,11-48.74,9.13-.55,6.79-1.31,11.77-1.31,11.77s-19.1,70.15-10.42,114.93c0,0,21.18,9.1,39.08-2s22.47-9.77,50.8-3.07,37.71,7.73,43.47-4.25S352.05,359.66,362.05,356.3Z" transform="translate(-189.69 -79.54)"/></svg>